<svg width="208" height="25" viewBox="0 0 208 25" fill="none" xmlns="http://www.w3.org/2000/svg"><path d="M58.9345 10.1828C59.1115 10.2954 59.2644 10.4563 59.3931 10.6655C59.5379 10.8747 59.6103 11.092 59.6103 11.3172C59.6103 11.6713 59.4816 11.977 59.2241 12.2345C58.9667 12.4759 58.669 12.5966 58.331 12.5966C58.2506 12.5966 58.1701 12.5885 58.0897 12.5724C58.0092 12.5563 57.9287 12.5322 57.8483 12.5C57.446 12.2103 56.9954 11.977 56.4966 11.8C56.0138 11.623 55.5069 11.5345 54.9759 11.5345C54.3483 11.5345 53.769 11.6552 53.2379 11.8966C52.723 12.1379 52.2805 12.4678 51.9103 12.8862C51.5402 13.2885 51.2506 13.7632 51.0414 14.3103C50.8322 14.8575 50.7276 15.4448 50.7276 16.0724C50.7276 16.7 50.8322 17.2874 51.0414 17.8345C51.2506 18.3816 51.5402 18.8644 51.9103 19.2828C52.2805 19.6851 52.723 20.0069 53.2379 20.2483C53.769 20.4736 54.3483 20.5862 54.9759 20.5862C55.6034 20.5862 56.1908 20.4736 56.7379 20.2483C57.2851 20.0069 57.7678 19.6931 58.1862 19.3069C58.3954 19.146 58.6448 19.0655 58.9345 19.0655C59.2724 19.0655 59.554 19.1862 59.7793 19.4276C60.0207 19.6529 60.1414 19.9345 60.1414 20.2724C60.1414 20.4977 60.0851 20.6989 59.9724 20.8759C59.8598 21.0529 59.7149 21.1977 59.5379 21.3103C58.9264 21.8253 58.2264 22.2356 57.4379 22.5414C56.6655 22.8471 55.8529 23 55 23C54.0345 23 53.1253 22.8149 52.2724 22.4448C51.4195 22.0747 50.6793 21.5759 50.0517 20.9483C49.4241 20.3207 48.9253 19.5805 48.5552 18.7276C48.1851 17.8747 48 16.9655 48 16C48 15.0345 48.1851 14.1253 48.5552 13.2724C48.9253 12.4195 49.4241 11.6793 50.0517 11.0517C50.6793 10.4241 51.4195 9.92529 52.2724 9.55517C53.1253 9.18506 54.0345 9 55 9C55.7241 9 56.4161 9.1046 57.0759 9.31379C57.7517 9.52299 58.3713 9.81264 58.9345 10.1828Z" fill="currentColor"></path><path d="M69.3196 9C70.2852 9 71.1944 9.18506 72.0472 9.55517C72.9001 9.92529 73.6403 10.4241 74.2679 11.0517C74.8955 11.6793 75.3944 12.4195 75.7645 13.2724C76.1346 14.1253 76.3196 15.0345 76.3196 16C76.3196 16.9655 76.1346 17.8747 75.7645 18.7276C75.3944 19.5805 74.8955 20.3207 74.2679 20.9483C73.6403 21.5759 72.9001 22.0747 72.0472 22.4448C71.1944 22.8149 70.2852 23 69.3196 23C68.3541 23 67.4449 22.8149 66.5921 22.4448C65.7392 22.0747 64.9989 21.5759 64.3714 20.9483C63.7438 20.3207 63.2449 19.5805 62.8748 18.7276C62.5047 17.8747 62.3196 16.9655 62.3196 16C62.3196 15.0345 62.5047 14.1253 62.8748 13.2724C63.2449 12.4195 63.7438 11.6793 64.3714 11.0517C64.9989 10.4241 65.7392 9.92529 66.5921 9.55517C67.4449 9.18506 68.3541 9 69.3196 9ZM69.2955 20.5862C69.9231 20.5862 70.4944 20.4736 71.0093 20.2483C71.5403 20.0069 71.9989 19.6851 72.3852 19.2828C72.7714 18.8644 73.0691 18.3816 73.2783 17.8345C73.4875 17.2874 73.5921 16.7 73.5921 16.0724C73.5921 15.4448 73.4875 14.8575 73.2783 14.3103C73.0691 13.7632 72.7714 13.2885 72.3852 12.8862C71.9989 12.4678 71.5403 12.1379 71.0093 11.8966C70.4944 11.6552 69.9231 11.5345 69.2955 11.5345C68.6679 11.5345 68.0886 11.6552 67.5576 11.8966C67.0426 12.1379 66.6001 12.4678 66.23 12.8862C65.8599 13.2885 65.5702 13.7632 65.361 14.3103C65.1518 14.8575 65.0472 15.4448 65.0472 16.0724C65.0472 16.7 65.1518 17.2874 65.361 17.8345C65.5702 18.3816 65.8599 18.8644 66.23 19.2828C66.6001 19.6851 67.0426 20.0069 67.5576 20.2483C68.0886 20.4736 68.6679 20.5862 69.2955 20.5862Z" fill="currentColor"></path><path d="M85.176 19.1862C84.9024 19.1862 84.6691 19.0736 84.476 18.8483L81.2898 15.4448V21.5034C81.2898 21.8736 81.153 22.1954 80.8794 22.469C80.6059 22.7425 80.284 22.8793 79.9139 22.8793C79.5438 22.8793 79.2219 22.7425 78.9484 22.469C78.6909 22.1954 78.5622 21.8736 78.5622 21.5034V9.5069C78.6426 9.28161 78.8116 9.16897 79.0691 9.16897C79.1978 9.16897 79.3024 9.2092 79.3829 9.28966C79.4794 9.35402 79.5679 9.42644 79.6484 9.5069L84.7173 15.131C84.7978 15.2115 84.8783 15.2759 84.9587 15.3241C85.0392 15.3724 85.1036 15.3966 85.1518 15.3966C85.2001 15.3966 85.2645 15.3724 85.3449 15.3241C85.4254 15.2759 85.5059 15.2115 85.5863 15.131L90.6553 9.5069C90.7357 9.42644 90.8162 9.35402 90.8967 9.28966C90.9932 9.2092 91.1059 9.16897 91.2346 9.16897C91.4921 9.16897 91.661 9.28161 91.7415 9.5069V21.5034C91.7415 21.8736 91.6047 22.1954 91.3311 22.469C91.0737 22.7425 90.7599 22.8793 90.3898 22.8793C90.0196 22.8793 89.6978 22.7425 89.4242 22.469C89.1507 22.1954 89.0139 21.8736 89.0139 21.5034V15.4448L85.8277 18.8483C85.6346 19.0736 85.4173 19.1862 85.176 19.1862Z" fill="currentColor"></path><path d="M100.989 19.1862C100.716 19.1862 100.482 19.0736 100.289 18.8483L97.1032 15.4448V21.5034C97.1032 21.8736 96.9664 22.1954 96.6928 22.469C96.4193 22.7425 96.0974 22.8793 95.7273 22.8793C95.3572 22.8793 95.0353 22.7425 94.7618 22.469C94.5043 22.1954 94.3756 21.8736 94.3756 21.5034V9.5069C94.456 9.28161 94.625 9.16897 94.8825 9.16897C95.0112 9.16897 95.1158 9.2092 95.1963 9.28966C95.2928 9.35402 95.3813 9.42644 95.4618 9.5069L100.531 15.131C100.611 15.2115 100.692 15.2759 100.772 15.3241C100.853 15.3724 100.917 15.3966 100.965 15.3966C101.014 15.3966 101.078 15.3724 101.158 15.3241C101.239 15.2759 101.319 15.2115 101.4 15.131L106.469 9.5069C106.549 9.42644 106.63 9.35402 106.71 9.28966C106.807 9.2092 106.919 9.16897 107.048 9.16897C107.305 9.16897 107.474 9.28161 107.555 9.5069V21.5034C107.555 21.8736 107.418 22.1954 107.145 22.469C106.887 22.7425 106.573 22.8793 106.203 22.8793C105.833 22.8793 105.511 22.7425 105.238 22.469C104.964 22.1954 104.827 21.8736 104.827 21.5034V15.4448L101.641 18.8483C101.448 19.0736 101.231 19.1862 100.989 19.1862Z" fill="currentColor"></path><path d="M112.917 16.8207C112.917 18.0759 113.142 19.0172 113.592 19.6448C114.043 20.2724 114.832 20.5862 115.958 20.5862C117.084 20.5862 117.873 20.2724 118.323 19.6448C118.774 19.0172 118.999 18.0759 118.999 16.8207V10.5448C118.999 10.1747 119.128 9.85287 119.386 9.57931C119.659 9.30575 119.981 9.16897 120.351 9.16897C120.721 9.16897 121.043 9.30575 121.317 9.57931C121.59 9.85287 121.727 10.1747 121.727 10.5448V16.8207C121.727 18.7195 121.244 20.2241 120.279 21.3345C119.313 22.4448 117.865 23 115.934 23C114.019 23 112.579 22.4448 111.613 21.3345C110.664 20.2241 110.189 18.7195 110.189 16.8207V10.5448C110.189 10.1747 110.318 9.85287 110.575 9.57931C110.849 9.30575 111.171 9.16897 111.541 9.16897C111.911 9.16897 112.233 9.30575 112.506 9.57931C112.78 9.85287 112.917 10.1747 112.917 10.5448V16.8207Z" fill="currentColor"></path><path d="M124.782 10.5448C124.782 10.1747 124.91 9.85287 125.168 9.57931C125.441 9.30575 125.763 9.16897 126.133 9.16897C126.262 9.16897 126.407 9.1931 126.568 9.24138C126.729 9.27356 126.874 9.34598 127.002 9.45862L133.857 14.9138V10.5448C133.857 10.1747 133.986 9.85287 134.244 9.57931C134.517 9.30575 134.839 9.16897 135.209 9.16897C135.579 9.16897 135.901 9.30575 136.175 9.57931C136.448 9.85287 136.585 10.1747 136.585 10.5448V21.5034C136.585 21.8736 136.448 22.1954 136.175 22.469C135.901 22.7425 135.579 22.8793 135.209 22.8793C134.839 22.8793 134.517 22.7425 134.244 22.469C133.986 22.1954 133.857 21.8736 133.857 21.5034V18.2931L127.509 13.3931V21.5034C127.509 21.8736 127.372 22.1954 127.099 22.469C126.825 22.7425 126.503 22.8793 126.133 22.8793C125.763 22.8793 125.441 22.7425 125.168 22.469C124.91 22.1954 124.782 21.8736 124.782 21.5034V10.5448Z" fill="currentColor"></path><path d="M139.633 10.5448C139.633 10.1747 139.762 9.85287 140.02 9.57931C140.293 9.30575 140.615 9.16897 140.985 9.16897C141.355 9.16897 141.677 9.30575 141.951 9.57931C142.224 9.85287 142.361 10.1747 142.361 10.5448V21.5034C142.361 21.8736 142.224 22.1954 141.951 22.469C141.677 22.7425 141.355 22.8793 140.985 22.8793C140.615 22.8793 140.293 22.7425 140.02 22.469C139.762 22.1954 139.633 21.8736 139.633 21.5034V10.5448Z" fill="currentColor"></path><path d="M146.26 11.6552C145.938 11.6552 145.657 11.5345 145.415 11.2931C145.174 11.0356 145.053 10.746 145.053 10.4241C145.053 10.0862 145.174 9.79655 145.415 9.55517C145.657 9.2977 145.938 9.16897 146.26 9.16897H154.539C154.861 9.16897 155.143 9.2977 155.384 9.55517C155.625 9.79655 155.746 10.0862 155.746 10.4241C155.746 10.746 155.625 11.0356 155.384 11.2931C155.143 11.5345 154.861 11.6552 154.539 11.6552H151.763V21.5034C151.763 21.8736 151.627 22.1954 151.353 22.469C151.08 22.7425 150.758 22.8793 150.388 22.8793C150.017 22.8793 149.696 22.7425 149.422 22.469C149.165 22.1954 149.036 21.8736 149.036 21.5034V11.6552H146.26Z" fill="currentColor"></path><path d="M162.286 17.7621L157.458 10.6655C157.442 10.6172 157.434 10.5287 157.434 10.4C157.434 9.9977 157.587 9.69195 157.893 9.48276C158.215 9.27356 158.561 9.16897 158.931 9.16897C159.204 9.16897 159.454 9.24138 159.679 9.38621C159.92 9.51494 160.105 9.7 160.234 9.94138L163.662 15.0103L167.065 9.94138C167.194 9.7 167.371 9.51494 167.596 9.38621C167.838 9.24138 168.095 9.16897 168.369 9.16897C168.739 9.16897 169.077 9.27356 169.382 9.48276C169.704 9.69195 169.865 9.9977 169.865 10.4C169.865 10.5287 169.857 10.6172 169.841 10.6655L165.013 17.7621V21.5034C165.013 21.8736 164.877 22.1954 164.603 22.469C164.33 22.7425 164.008 22.8793 163.638 22.8793C163.267 22.8793 162.946 22.7425 162.672 22.469C162.415 22.1954 162.286 21.8736 162.286 21.5034V17.7621Z" fill="currentColor"></path><g clip-path="url(#clip0_233_2968)"><path fill-rule="evenodd" clip-rule="evenodd" d="M11.6049 14.9637C11.5933 16.6446 12.2489 18.2614 13.4279 19.4595C14.6069 20.6576 16.2131 21.3391 17.8939 21.3544H19.0413C20 21.3544 20.3485 22.008 20.7697 23.0102L20.7826 23.0405C21.0248 23.6108 21.2584 24.1607 21.7864 24.3319C21.8876 24.346 21.9903 24.346 22.0915 24.3319C22.3261 24.3378 22.5577 24.2773 22.7596 24.1576C23.1981 23.8042 23.5591 23.3642 23.8198 22.8649C24.0522 22.5018 24.3282 22.0807 24.6187 21.703C25.1129 21.1151 25.6519 20.5664 26.2309 20.0618L27.509 18.7546C28.3055 17.6513 28.7325 16.3244 28.7291 14.9637V13.642C28.7407 11.9597 28.0855 10.3414 26.9069 9.14099C25.7283 7.9406 24.1222 7.25592 22.44 7.23676H17.8939C16.2118 7.25592 14.6056 7.9406 13.427 9.14099C12.2484 10.3414 11.5933 11.9597 11.6049 13.642V14.9637ZM17.9085 9.53676H22.4255C23.4952 9.552 24.516 9.98875 25.2658 10.7524C26.0183 11.5188 26.4366 12.5521 26.4291 13.6261L26.4291 13.634L26.4291 14.9637L26.4291 14.9695C26.4312 15.7939 26.1876 16.599 25.7313 17.2828L24.6482 18.3906C24.0067 18.9559 23.4084 19.5684 22.8581 20.223L22.8261 20.2612L22.7956 20.3007C22.6284 20.5181 22.4688 20.7423 22.322 20.9573C22.1796 20.7224 22.0129 20.486 21.8172 20.2685C21.1147 19.4873 20.1629 19.0544 19.0413 19.0544H17.9056C16.8372 19.0422 15.8168 18.608 15.0673 17.8463C14.3155 17.0823 13.8974 16.0514 13.9048 14.9796L13.9049 14.9717V13.634L13.9048 13.6261C13.8974 12.552 14.3157 11.5188 15.0682 10.7524C15.818 9.98875 16.8387 9.552 17.9085 9.53676ZM21.7787 22.0901C21.8418 22.0683 21.9068 22.0525 21.973 22.043C22.0168 22.0442 22.0606 22.0479 22.1042 22.054L22.0465 22.4676L21.8434 22.5539L21.7787 22.0901ZM21.9222 23.1185L21.9389 23.2387L21.9508 23.1539L21.9222 23.1185ZM22.106 23.3466L21.9997 23.6743L22.0915 24.3319L22.1157 23.3585L22.106 23.3466ZM22.0456 22.474L21.9915 22.8622L21.8541 22.6306L21.8441 22.5587L22.0456 22.474Z" fill="currentColor"></path><path fill-rule="evenodd" clip-rule="evenodd" d="M30.2071 9.41169C30.5781 9.04075 31.1796 9.04084 31.5506 9.41189C33.0901 10.9519 33.955 13.0403 33.955 15.2179C33.955 17.3954 33.0901 19.4839 31.5506 21.0239C31.1796 21.3949 30.5781 21.395 30.2071 21.0241C29.836 20.6531 29.8359 20.0516 30.2069 19.6806C31.3902 18.4969 32.055 16.8916 32.055 15.2179C32.055 13.5441 31.3902 11.9389 30.2069 10.7552C29.8359 10.3841 29.836 9.78264 30.2071 9.41169Z" fill="currentColor"></path><path fill-rule="evenodd" clip-rule="evenodd" d="M32.9234 5.30096C33.2947 4.9302 33.8962 4.93057 34.2669 5.3018C36.8928 7.93091 38.3677 11.4948 38.3677 15.2106C38.3677 18.9264 36.8928 22.4903 34.2669 25.1194C33.8962 25.4906 33.2947 25.491 32.9234 25.1203C32.5522 24.7495 32.5518 24.148 32.9226 23.7767C35.1926 21.5039 36.4677 18.4229 36.4677 15.2106C36.4677 11.9983 35.1926 8.91733 32.9226 6.64447C32.5518 6.27324 32.5522 5.67173 32.9234 5.30096Z" fill="currentColor"></path><path fill-rule="evenodd" clip-rule="evenodd" d="M9.92346 8.97596C10.2945 9.3469 10.2946 9.94841 9.92366 10.3195C8.74031 11.5032 8.07554 13.1084 8.07554 14.7822C8.07554 16.4559 8.74031 18.0612 9.92366 19.2449C10.2946 19.6159 10.2945 20.2174 9.92346 20.5884C9.5524 20.9593 8.9509 20.9592 8.57995 20.5882C7.04041 19.0482 6.17554 16.9597 6.17554 14.7822C6.17554 12.6046 7.04041 10.5162 8.57995 8.97616C8.9509 8.60511 9.5524 8.60502 9.92346 8.97596Z" fill="currentColor"></path><path fill-rule="evenodd" clip-rule="evenodd" d="M7.266 4.86576C7.63694 5.23682 7.63684 5.83833 7.26578 6.20926C6.13974 7.33494 5.24649 8.67142 4.63707 10.1424C4.02764 11.6133 3.71396 13.1899 3.71396 14.7821C3.71396 16.3743 4.02764 17.9509 4.63707 19.4219C5.24649 20.8928 6.13974 22.2293 7.26578 23.355C7.63684 23.7259 7.63694 24.3274 7.266 24.6985C6.89507 25.0695 6.29356 25.0696 5.9225 24.6987C4.61996 23.3966 3.58671 21.8506 2.88175 20.1491C2.1768 18.4476 1.81396 16.6239 1.81396 14.7821C1.81396 12.9404 2.1768 11.1166 2.88175 9.41513C3.58671 7.71361 4.61996 6.16765 5.9225 4.86554C6.29356 4.4946 6.89507 4.4947 7.266 4.86576Z" fill="currentColor"></path></g><rect x="174" width="34" height="16" rx="8" fill="${({ theme: { colors } }) => colors.primary};"></rect><path d="M182.826 7.42501H184.564C184.806 7.42501 185.008 7.34068 185.169 7.17201C185.338 6.99601 185.422 6.79435 185.422 6.56701C185.422 6.33235 185.338 6.13068 185.169 5.96201C185.008 5.79335 184.806 5.70901 184.564 5.70901H182.826V7.42501ZM184.553 10.076C184.67 10.076 184.78 10.054 184.883 10.01C184.993 9.95868 185.085 9.89268 185.158 9.81201C185.239 9.73135 185.301 9.63968 185.345 9.53701C185.396 9.42701 185.422 9.31335 185.422 9.19601C185.422 9.10068 185.404 9.00535 185.367 8.91001C185.338 8.81468 185.294 8.73035 185.235 8.65701C185.184 8.57635 185.114 8.51401 185.026 8.47001C184.945 8.41868 184.857 8.39301 184.762 8.39301H182.826V10.076H184.553ZM184.652 4.75201C184.901 4.75201 185.136 4.79968 185.356 4.89501C185.583 4.99035 185.778 5.12235 185.939 5.29101C186.108 5.45235 186.24 5.64301 186.335 5.86301C186.43 6.08301 186.478 6.31768 186.478 6.56701C186.478 6.80168 186.423 7.03635 186.313 7.27101C186.21 7.49835 186.071 7.70735 185.895 7.89801C186.071 8.08868 186.21 8.29401 186.313 8.51401C186.416 8.73401 186.467 8.96135 186.467 9.19601C186.467 9.44535 186.419 9.68001 186.324 9.90001C186.229 10.1127 186.097 10.3033 185.928 10.472C185.767 10.6333 185.576 10.7617 185.356 10.857C185.136 10.9523 184.901 11 184.652 11H182.298C182.151 11 182.027 10.9487 181.924 10.846C181.821 10.7433 181.77 10.6187 181.77 10.472V5.28001C181.77 5.13335 181.821 5.00868 181.924 4.90601C182.027 4.80335 182.151 4.75201 182.298 4.75201H184.652Z" fill="white"></path><path d="M189.556 7.52401C189.432 7.52401 189.303 7.54235 189.171 7.57901C189.047 7.60835 188.933 7.65968 188.83 7.73301C188.735 7.79901 188.654 7.88701 188.588 7.99701C188.53 8.09968 188.5 8.22068 188.5 8.36001H190.623C190.623 8.20601 190.59 8.07768 190.524 7.97501C190.466 7.86501 190.385 7.77701 190.282 7.71101C190.18 7.64501 190.066 7.59735 189.941 7.56801C189.817 7.53868 189.688 7.52401 189.556 7.52401ZM188.5 9.24001C188.5 9.42335 188.544 9.57368 188.632 9.69101C188.728 9.80835 188.838 9.90001 188.962 9.96601C189.094 10.032 189.226 10.0797 189.358 10.109C189.498 10.131 189.615 10.142 189.71 10.142C189.842 10.142 190 10.1273 190.183 10.098C190.367 10.0613 190.532 10.01 190.678 9.94401C190.752 9.90735 190.821 9.88901 190.887 9.88901C191.012 9.88901 191.118 9.93301 191.206 10.021C191.294 10.109 191.338 10.2153 191.338 10.34C191.338 10.472 191.291 10.5783 191.195 10.659C190.997 10.813 190.763 10.9193 190.491 10.978C190.22 11.0293 189.963 11.055 189.721 11.055C189.406 11.055 189.105 11.0147 188.819 10.934C188.541 10.846 188.295 10.7103 188.082 10.527C187.877 10.3437 187.712 10.1127 187.587 9.83401C187.47 9.55535 187.411 9.22168 187.411 8.83301C187.411 8.52501 187.452 8.23535 187.532 7.96401C187.613 7.68535 187.738 7.44335 187.906 7.23801C188.082 7.02535 188.302 6.85668 188.566 6.73201C188.838 6.60735 189.16 6.54501 189.534 6.54501C189.835 6.54501 190.114 6.59268 190.37 6.68801C190.627 6.77601 190.851 6.91168 191.041 7.09501C191.232 7.27835 191.382 7.50568 191.492 7.77701C191.602 8.04835 191.657 8.36001 191.657 8.71201C191.657 8.85868 191.606 8.98335 191.503 9.08601C191.401 9.18868 191.276 9.24001 191.129 9.24001H188.5Z" fill="white"></path><path d="M195.101 10.131C195.226 10.131 195.332 10.1787 195.42 10.274C195.515 10.362 195.563 10.4683 195.563 10.593C195.563 10.7177 195.515 10.8277 195.42 10.923C195.332 11.011 195.226 11.055 195.101 11.055H194.76C194.525 11.055 194.32 11.0257 194.144 10.967C193.968 10.9083 193.818 10.8093 193.693 10.67C193.568 10.5307 193.473 10.3437 193.407 10.109C193.348 9.86701 193.319 9.56635 193.319 9.20701V7.49101H192.78C192.655 7.49101 192.545 7.44701 192.45 7.35901C192.362 7.26368 192.318 7.15368 192.318 7.02901C192.318 6.89701 192.362 6.78335 192.45 6.68801C192.545 6.59268 192.655 6.54501 192.78 6.54501H193.319V5.28001C193.319 5.13335 193.37 5.00868 193.473 4.90601C193.576 4.80335 193.7 4.75201 193.847 4.75201C193.994 4.75201 194.118 4.80335 194.221 4.90601C194.324 5.00868 194.375 5.13335 194.375 5.28001V6.54501H195.09C195.215 6.54501 195.321 6.59268 195.409 6.68801C195.504 6.78335 195.552 6.89701 195.552 7.02901C195.552 7.15368 195.504 7.26368 195.409 7.35901C195.321 7.44701 195.215 7.49101 195.09 7.49101H194.375V8.95401C194.375 9.19601 194.379 9.39401 194.386 9.54801C194.401 9.70201 194.426 9.82301 194.463 9.91101C194.5 9.99168 194.555 10.0503 194.628 10.087C194.709 10.1163 194.811 10.131 194.936 10.131H195.101Z" fill="white"></path><path d="M198.582 10.142C198.743 10.142 198.897 10.109 199.044 10.043C199.191 9.97701 199.319 9.88535 199.429 9.76801C199.539 9.64335 199.623 9.50035 199.682 9.33901C199.748 9.17035 199.781 8.98701 199.781 8.78901C199.781 8.59835 199.748 8.42601 199.682 8.27201C199.616 8.11068 199.528 7.97501 199.418 7.86501C199.308 7.74768 199.18 7.65968 199.033 7.60101C198.894 7.53501 198.743 7.50201 198.582 7.50201C198.252 7.50201 197.977 7.62301 197.757 7.86501C197.537 8.09968 197.427 8.40768 197.427 8.78901C197.427 8.97968 197.456 9.15568 197.515 9.31701C197.574 9.47835 197.654 9.62135 197.757 9.74601C197.867 9.87068 197.992 9.96968 198.131 10.043C198.27 10.109 198.421 10.142 198.582 10.142ZM199.957 6.97401C199.972 6.87135 200.019 6.78335 200.1 6.71001C200.188 6.63668 200.287 6.60001 200.397 6.60001C200.514 6.60001 200.617 6.64401 200.705 6.73201C200.793 6.82001 200.837 6.92635 200.837 7.05101V10.549C200.837 10.6737 200.793 10.78 200.705 10.868C200.617 10.956 200.514 11 200.397 11C200.287 11 200.188 10.9633 200.1 10.89C200.019 10.8167 199.972 10.7287 199.957 10.626L199.891 10.417C199.796 10.5563 199.686 10.67 199.561 10.758C199.436 10.8387 199.304 10.901 199.165 10.945C199.026 10.989 198.886 11.0183 198.747 11.033C198.608 11.0477 198.479 11.055 198.362 11.055C198.076 11.055 197.808 10.9963 197.559 10.879C197.317 10.7543 197.104 10.5893 196.921 10.384C196.745 10.1787 196.606 9.93668 196.503 9.65801C196.4 9.37935 196.349 9.08601 196.349 8.77801C196.349 8.47001 196.4 8.18401 196.503 7.92001C196.606 7.64868 196.749 7.41035 196.932 7.20501C197.123 6.99968 197.343 6.83835 197.592 6.72101C197.849 6.60368 198.127 6.54501 198.428 6.54501C198.479 6.54501 198.56 6.55235 198.67 6.56701C198.787 6.57435 198.916 6.60001 199.055 6.64401C199.194 6.68801 199.337 6.75768 199.484 6.85301C199.631 6.94835 199.766 7.08035 199.891 7.24901L199.957 6.97401Z" fill="white"></path><defs><clipPath id="clip0_233_2968"><rect width="40" height="20" fill="white" transform="translate(0 5)"></rect></clipPath></defs></svg>