<svg xmlns="http://www.w3.org/2000/svg" width="32" height="32" viewBox="0 0 32 32" fill="none">
    <circle cx="16" cy="16" r="16" fill="#FF775F"/>
    <path d="M18.7 11.4C18.7 12.8912 17.4912 14.1 16 14.1C14.5088 14.1 13.3 12.8912 13.3 11.4C13.3 9.90884 14.5088 8.70001 16 8.70001C17.4912 8.70001 18.7 9.90884 18.7 11.4Z" fill="white"/>
    <path d="M23.2 13.2C23.2 14.1941 22.3941 15 21.4 15C20.4059 15 19.6 14.1941 19.6 13.2C19.6 12.2059 20.4059 11.4 21.4 11.4C22.3941 11.4 23.2 12.2059 23.2 13.2Z" fill="white"/>
    <path d="M19.6 19.5C19.6 17.5118 17.9882 15.9 16 15.9C14.0118 15.9 12.4 17.5118 12.4 19.5V22.2H19.6V19.5Z" fill="white"/>
    <path d="M12.4 13.2C12.4 14.1941 11.5941 15 10.6 15C9.60589 15 8.8 14.1941 8.8 13.2C8.8 12.2059 9.60589 11.4 10.6 11.4C11.5941 11.4 12.4 12.2059 12.4 13.2Z" fill="white"/>
    <path d="M21.4 22.2V19.5C21.4 18.5513 21.1553 17.6597 20.7257 16.8849C20.9412 16.8295 21.1672 16.8 21.4 16.8C22.8912 16.8 24.1 18.0088 24.1 19.5V22.2H21.4Z" fill="white"/>
    <path d="M11.2743 16.8849C10.8447 17.6597 10.6 18.5513 10.6 19.5V22.2H7.9V19.5C7.9 18.0088 9.10883 16.8 10.6 16.8C10.8328 16.8 11.0588 16.8295 11.2743 16.8849Z" fill="white"/>
</svg>