<svg xmlns="http://www.w3.org/2000/svg" width="32" height="32" viewBox="0 0 32 32" fill="none">
<circle cx="16" cy="16" r="16" fill="#8A3FFC"/>
<path d="M22.3996 10.4001C22.3996 10.1228 22.256 9.86534 22.0202 9.71958C21.7843 9.57381 21.4898 9.56056 21.2418 9.68456L15.0108 12.8001H11.9996C10.6741 12.8001 9.59961 13.8746 9.59961 15.2001C9.59961 16.5256 10.6741 17.6001 11.9996 17.6001H12.223L13.6407 21.8531C13.7496 22.1798 14.0553 22.4001 14.3996 22.4001H15.1996C15.6414 22.4001 15.9996 22.0419 15.9996 21.6001V18.0945L21.2418 20.7156C21.4898 20.8396 21.7843 20.8264 22.0202 20.6806C22.256 20.5349 22.3996 20.2774 22.3996 20.0001V10.4001Z" fill="white"/>
</svg>