<svg xmlns="http://www.w3.org/2000/svg" fill="currentColor" height="40" width="40" viewBox="0 0 40 40" class="sc-1prm8qw-0 drWdNN"><svg width="40" height="40" viewBox="0 0 32 32" fill="none" xmlns="http://www.w3.org/2000/svg"><circle cx="16" cy="16" r="16" fill="#16C784"></circle><path fill-rule="evenodd" clip-rule="evenodd" d="M12.6667 9.33325C12.2065 9.33325 11.8334 9.70635 11.8334 10.1666V10.9999H11C10.0796 10.9999 9.33337 11.7461 9.33337 12.6666V20.9999C9.33337 21.9204 10.0796 22.6666 11 22.6666H21C21.9205 22.6666 22.6667 21.9204 22.6667 20.9999V12.6666C22.6667 11.7461 21.9205 10.9999 21 10.9999H20.1667V10.1666C20.1667 9.70635 19.7936 9.33325 19.3334 9.33325C18.8731 9.33325 18.5 9.70635 18.5 10.1666V10.9999H13.5V10.1666C13.5 9.70635 13.1269 9.33325 12.6667 9.33325ZM12.6667 13.4999C12.2065 13.4999 11.8334 13.873 11.8334 14.3333C11.8334 14.7935 12.2065 15.1666 12.6667 15.1666H19.3334C19.7936 15.1666 20.1667 14.7935 20.1667 14.3333C20.1667 13.873 19.7936 13.4999 19.3334 13.4999H12.6667Z" fill="white"></path></svg></svg>