<svg xmlns="http://www.w3.org/2000/svg" width="40" height="40" fill="none"><svg xmlns="http://www.w3.org/2000/svg" viewBox="0 0 32 32"><circle cx="16" cy="16" r="16" fill="#16C784"/><path d="M22.274 11.801a6.169 6.169 0 0 0-2.425-.468c-2.566 0-5.132 1.3-7.698 1.3a6.32 6.32 0 0 1-1.93-.287.713.713 0 0 0-.216-.034.663.663 0 0 0-.672.663v6.61c0 .263.151.512.393.614.808.339 1.617.468 2.425.468 2.566 0 5.132-1.3 7.698-1.3a6.32 6.32 0 0 1 1.93.287.713.713 0 0 0 .216.033.663.663 0 0 0 .672-.662v-6.61a.663.663 0 0 0-.393-.614zM16 18c-.92 0-1.667-.896-1.667-2s.747-2 1.667-2 1.667.896 1.667 2c0 1.105-.747 2-1.667 2z" fill="#fff"/></svg></svg>